<?xml version="1.0" standalone="no"?>
<!DOCTYPE svg PUBLIC "-//W3C//DTD SVG 20010904//EN"
 "http://www.w3.org/TR/2001/REC-SVG-20010904/DTD/svg10.dtd">
<svg version="1.0" xmlns="http://www.w3.org/2000/svg"
 width="350.000000pt" height="350.000000pt" viewBox="0 0 350.000000 350.000000"
 preserveAspectRatio="xMidYMid meet">
<metadata>
Created by potrace 1.14, written by Peter Selinger 2001-2017
</metadata>
<g transform="translate(0.000000,350.000000) scale(0.100000,-0.100000)"
fill="#000000" stroke="none">
<path d="M1656 3347 c-50 -50 -103 -153 -144 -282 l-30 -90 241 -3 c132 -1
242 0 245 3 9 9 -28 127 -70 223 -29 66 -55 108 -89 143 -63 65 -93 66 -153 6z"/>
<path d="M1910 3364 c0 -3 8 -18 19 -32 37 -54 96 -201 131 -331 l10 -37 147
-17 c82 -10 194 -26 251 -36 56 -10 102 -15 102 -10 0 15 -116 153 -176 210
-83 78 -162 134 -252 178 -95 47 -232 92 -232 75z"/>
<path d="M1474 3340 c-87 -30 -193 -88 -269 -146 -79 -59 -199 -181 -254 -258
l-33 -47 38 6 c22 4 71 13 109 21 61 12 203 30 289 36 32 3 31 0 76 144 17 55
49 136 71 179 21 43 39 80 39 82 0 5 -14 2 -66 -17z"/>
<path d="M2420 3208 c76 -64 164 -167 232 -269 44 -66 57 -79 92 -89 23 -7 75
-23 116 -36 41 -13 79 -24 83 -24 13 0 -67 94 -148 175 -104 103 -247 206
-382 274 -62 31 -61 26 7 -31z"/>
<path d="M1080 3223 c-29 -11 -146 -87 -220 -144 -74 -55 -270 -252 -270 -270
0 -13 1 -12 109 21 l96 30 60 91 c33 50 101 134 152 185 51 52 91 94 90 93 -1
0 -9 -3 -17 -6z"/>
<path d="M1185 2845 c-82 -13 -190 -32 -240 -42 l-90 -19 -27 -49 c-64 -117
-159 -395 -135 -395 11 0 89 9 223 25 22 3 116 9 208 15 93 5 170 11 171 12 1
2 9 66 19 143 15 127 39 273 52 318 6 21 10 21 -181 -8z"/>
<path d="M1672 2854 c-12 -8 -22 -22 -22 -30 0 -8 -3 -14 -7 -15 -5 0 -26 -2
-47 -3 -30 -2 -47 -11 -69 -36 -29 -32 -29 -33 -25 -141 4 -157 -1 -153 225
-157 117 -2 185 1 204 8 42 18 59 65 59 162 0 119 -37 172 -117 166 -15 -2
-28 3 -31 11 -2 7 -13 22 -23 32 -24 24 -114 26 -147 3z m136 -31 c3 -10 -15
-13 -67 -13 -59 0 -69 2 -64 15 4 12 19 15 66 13 37 -2 62 -8 65 -15z m130
-63 c20 -19 22 -31 22 -119 0 -150 5 -146 -214 -146 -169 0 -176 1 -198 23
-19 18 -23 36 -26 97 -5 88 1 118 28 145 18 18 34 20 193 20 161 0 175 -1 195
-20z"/>
<path d="M1681 2704 c-25 -21 -31 -34 -31 -64 0 -57 34 -93 89 -93 59 0 91 32
91 90 0 86 -83 123 -149 67z m84 -24 c0 -8 10 -16 23 -18 14 -2 22 -10 22 -22
0 -12 -8 -20 -22 -22 -13 -2 -23 -10 -23 -18 0 -8 -10 -16 -22 -18 -18 -3 -23
2 -23 17 0 14 -6 21 -20 21 -13 0 -20 7 -20 20 0 13 7 20 20 20 14 0 20 7 20
21 0 15 5 20 23 17 12 -2 22 -10 22 -18z"/>
<path d="M2094 2853 c12 -44 36 -189 52 -313 9 -74 19 -138 23 -142 3 -4 94
-12 201 -18 108 -6 250 -17 315 -25 66 -8 121 -15 123 -15 20 0 -58 236 -118
355 l-45 90 -80 18 c-99 21 -398 67 -443 67 -27 0 -32 -3 -28 -17z"/>
<path d="M2770 2742 c0 -5 11 -30 24 -58 21 -44 73 -195 108 -314 l13 -44 110
-17 c61 -9 123 -20 138 -24 27 -7 28 -6 21 21 -15 61 -58 173 -101 261 -37 76
-50 93 -76 103 -59 22 -228 80 -233 80 -2 0 -4 -4 -4 -8z"/>
<path d="M610 2709 c-47 -17 -93 -33 -102 -36 -20 -6 -105 -177 -142 -285 -30
-88 -32 -110 -12 -102 8 3 63 13 123 22 100 16 108 19 115 42 31 108 95 294
114 334 13 28 24 51 24 53 0 9 -45 -1 -120 -28z"/>
<path d="M1597 2338 c-4 -24 -9 -86 -13 -139 l-6 -96 -131 -7 c-72 -4 -135
-10 -139 -12 -4 -3 -8 -65 -8 -138 l0 -134 139 -7 139 -7 6 -97 c4 -53 9 -115
13 -138 l5 -43 133 0 c119 0 134 2 139 18 3 9 8 72 12 138 l6 122 139 7 139 7
0 138 0 138 -139 7 -139 7 -8 127 c-4 69 -8 131 -8 136 -1 6 -56 11 -137 13
l-137 3 -5 -43z"/>
<path d="M442 2214 c-67 -11 -124 -23 -126 -25 -20 -20 -34 -330 -20 -433 6
-43 9 -47 43 -56 41 -10 210 -38 214 -34 1 1 -2 56 -7 123 -7 93 -6 157 7 283
9 89 15 162 14 163 -1 1 -57 -9 -125 -21z"/>
<path d="M2933 2204 c19 -125 29 -336 20 -429 -6 -55 -7 -103 -4 -106 6 -7
141 12 223 32 26 6 49 18 53 27 8 21 7 298 -1 380 -9 79 -15 84 -157 106 -60
10 -116 20 -124 23 -14 5 -15 0 -10 -33z"/>
<path d="M797 2091 c-61 -59 -71 -87 -22 -61 23 12 28 11 55 -15 36 -35 37
-39 5 -73 -14 -15 -25 -30 -25 -34 0 -14 23 -9 42 8 17 16 23 12 108 -70 84
-81 93 -87 121 -81 25 6 36 2 60 -21 37 -35 51 -23 16 14 -20 20 -27 39 -27
66 0 35 -8 47 -82 122 -63 65 -79 87 -70 96 14 14 16 38 3 38 -6 0 -22 -11
-37 -25 l-26 -24 -29 27 c-30 28 -36 51 -18 69 8 8 8 13 0 18 -7 3 -39 -20
-74 -54z m183 -101 c12 -16 17 -30 11 -30 -6 0 -11 5 -11 11 0 5 -5 7 -10 4
-6 -4 -4 -12 5 -21 8 -9 15 -20 15 -26 0 -5 7 -8 14 -5 11 4 13 1 9 -11 -5
-14 -3 -14 18 3 18 16 21 16 10 2 -8 -9 -11 -21 -7 -24 4 -4 11 -1 17 7 8 12
15 9 39 -18 35 -38 38 -62 10 -87 -30 -27 -58 -13 -145 74 l-79 81 34 35 c19
19 37 35 41 35 4 0 17 -13 29 -30z"/>
<path d="M2409 2101 c-16 -16 -29 -40 -29 -53 0 -23 44 -98 58 -98 4 0 33 26
65 58 l57 58 -22 21 c-56 51 -88 54 -129 14z"/>
<path d="M2624 2111 c-18 -11 -35 -25 -39 -31 -5 -7 16 -35 51 -72 l59 -59 28
33 c41 48 32 114 -20 137 -33 15 -43 14 -79 -8z"/>
<path d="M2515 1990 l-49 -50 49 -50 49 -50 48 47 c26 26 48 52 48 57 0 11
-80 96 -90 96 -3 0 -28 -22 -55 -50z m90 -10 c3 -5 1 -10 -4 -10 -6 0 -11 5
-11 10 0 6 2 10 4 10 3 0 8 -4 11 -10z m-95 -40 c0 -5 -4 -10 -10 -10 -5 0
-10 5 -10 10 0 6 5 10 10 10 6 0 10 -4 10 -10z m30 -30 c0 -5 -4 -10 -10 -10
-5 0 -10 5 -10 10 0 6 5 10 10 10 6 0 10 -4 10 -10z m70 6 c0 -3 -4 -8 -10
-11 -5 -3 -10 -1 -10 4 0 6 5 11 10 11 6 0 10 -2 10 -4z"/>
<path d="M2401 1895 c-76 -87 5 -197 98 -133 62 42 62 51 1 113 -30 30 -57 55
-61 55 -4 0 -21 -16 -38 -35z"/>
<path d="M2632 1877 c-29 -29 -52 -57 -52 -63 0 -14 46 -53 77 -65 54 -20 103
15 103 76 0 33 -6 47 -33 73 -18 18 -35 32 -38 32 -2 0 -28 -24 -57 -53z"/>
<path d="M3110 1600 c-47 -10 -105 -21 -131 -24 l-45 -7 -18 -87 c-9 -48 -33
-138 -53 -200 -19 -62 -33 -115 -31 -117 4 -4 23 2 181 61 65 25 68 28 93 81
46 101 110 317 93 312 -2 -1 -42 -9 -89 -19z"/>
<path d="M320 1605 c0 -34 86 -282 120 -345 9 -17 215 -98 225 -89 2 3 -11 52
-29 109 -18 58 -41 147 -51 198 -16 78 -22 93 -39 96 -179 34 -226 40 -226 31z"/>
<path d="M660 1548 c0 -59 99 -377 127 -409 8 -9 32 -20 55 -23 23 -4 44 -9
48 -11 14 -9 -13 -84 -32 -87 -15 -3 -10 -15 31 -83 27 -44 72 -108 100 -143
50 -60 51 -63 37 -90 -27 -51 -50 -65 -100 -58 -25 4 -48 11 -51 15 -2 5 -20
12 -39 15 -76 14 -306 257 -409 431 -15 26 -30 46 -32 43 -2 -2 5 -48 16 -103
10 -55 19 -106 19 -114 0 -8 -22 15 -48 50 -35 47 -56 88 -76 153 -15 49 -38
105 -51 126 -44 70 -117 93 -123 39 -6 -54 86 -400 132 -495 45 -93 422 -388
671 -527 222 -123 505 -214 640 -205 l49 3 14 75 c7 41 11 123 10 183 l-3 107
82 0 c79 0 82 1 108 31 32 39 40 33 26 -18 -14 -50 -13 -208 2 -303 l12 -75
46 -3 c84 -5 318 52 448 109 252 112 501 277 731 482 146 130 156 151 230 445
47 187 48 215 7 220 -23 3 -37 -5 -67 -37 -31 -33 -46 -62 -72 -144 -29 -93
-80 -186 -102 -187 -5 0 -5 15 -2 33 13 57 24 132 21 135 -1 2 -17 -21 -35
-50 -79 -129 -263 -333 -330 -368 -58 -30 -189 -72 -213 -68 -18 3 -8 12 53
54 90 62 178 136 243 207 67 72 171 211 160 214 -8 3 -211 -61 -218 -69 -1 -1
-15 -28 -30 -58 -57 -113 -218 -334 -238 -327 -7 2 -20 18 -30 36 l-19 31 44
53 c41 49 83 110 137 200 21 35 22 37 4 37 -14 0 -22 11 -30 40 l-10 40 36 10
c20 5 41 10 47 10 21 0 41 35 73 124 36 101 84 293 77 305 -3 4 -31 4 -63 0
-85 -11 -274 -28 -383 -34 -52 -3 -123 -8 -156 -11 l-61 -5 -7 -77 c-6 -69
-44 -367 -49 -381 -1 -3 1 -8 6 -10 12 -5 234 20 311 35 38 8 73 11 77 7 4 -5
-9 -27 -29 -51 -42 -48 -68 -55 -271 -76 l-114 -11 -19 -79 c-18 -72 -24 -84
-74 -134 -30 -30 -54 -58 -54 -63 0 -5 -5 -9 -11 -9 -6 0 -9 8 -6 18 22 67 67
230 67 242 0 13 -37 15 -270 15 -188 0 -270 -3 -270 -11 0 -10 33 -145 46
-189 5 -14 -4 -9 -31 17 -21 21 -46 40 -56 43 -18 6 -49 86 -49 126 0 10 -4
20 -8 23 -4 2 -64 12 -133 21 -69 9 -139 19 -155 24 -32 8 -104 93 -85 99 7 2
49 -3 94 -12 99 -19 249 -38 255 -31 2 2 -5 77 -17 167 -11 90 -24 195 -28
233 l-8 70 -55 2 c-122 6 -511 40 -547 48 -15 3 -23 1 -23 -7z"/>
<path d="M1583 1398 c-60 -16 -94 -91 -69 -152 13 -30 20 -36 45 -36 20 0 35
7 43 20 16 24 27 25 43 3 10 -14 15 -10 30 33 32 87 41 86 65 -14 l17 -67 17
40 17 39 24 -26 c18 -19 30 -24 52 -21 62 11 73 84 22 146 -27 33 -36 37 -75
37 -25 0 -59 -7 -75 -16 -23 -12 -34 -13 -44 -4 -22 19 -77 27 -112 18z"/>
<path d="M1691 1217 c-6 -16 -11 -32 -11 -36 0 -5 -7 -14 -15 -21 -12 -10 -17
-7 -26 14 -13 27 -24 33 -34 16 -3 -5 -15 -10 -26 -10 -10 0 -19 -4 -19 -10 0
-13 138 -130 154 -130 8 0 47 31 88 70 68 64 71 69 46 70 -15 0 -30 5 -33 10
-12 19 -22 10 -34 -30 -20 -67 -44 -63 -57 10 -3 19 -9 44 -14 55 -7 19 -9 18
-19 -8z"/>
<path d="M530 1113 c0 -16 83 -125 155 -200 72 -77 214 -199 262 -227 20 -11
18 -8 -65 103 -38 50 -89 130 -115 178 l-46 88 -95 32 c-53 17 -96 29 -96 26z"/>
</g>
</svg>
